<svg xmlns="http://www.w3.org/2000/svg" width="512" height="512" shape-rendering="crispEdges" viewBox="-1.5 -0.5 26.5 26.5"><rect width="26.5" height="26.5" x="-1.5" y="-.5" fill="#3abe41"/><path fill="#201729" d="M7,23h1v1h2v1h7v-1h2v-1h1v-1h-1v-1h-2v-1h-7v1h-2v1h-1Z" opacity=".45"/><rect width="1" height="1" x="9" y="2" fill="#79584f"/><rect width="1" height="1" x="10" y="2" fill="#79584f"/><rect width="1" height="1" x="11" y="2" fill="#795a4f"/><rect width="1" height="1" x="12" y="2" fill="#79584f"/><rect width="1" height="1" x="13" y="2" fill="#79584f"/><rect width="1" height="1" x="7" y="3" fill="#79584f"/><rect width="1" height="1" x="8" y="3" fill="#79584f"/><rect width="1" height="1" x="9" y="3" fill="#947b5c"/><rect width="1" height="1" x="10" y="3" fill="#96785c"/><rect width="1" height="1" x="11" y="3" fill="#94785c"/><rect width="1" height="1" x="12" y="3" fill="#795a4f"/><rect width="1" height="1" x="13" y="3" fill="#94785e"/><rect width="1" height="1" x="14" y="3" fill="#7b584f"/><rect width="1" height="1" x="15" y="3" fill="#79584f"/><rect width="1" height="1" x="16" y="3" fill="#79584f"/><rect width="1" height="1" x="6" y="4" fill="#79584f"/><rect width="1" height="1" x="7" y="4" fill="#94785c"/><rect width="1" height="1" x="8" y="4" fill="#94785c"/><rect width="1" height="1" x="9" y="4" fill="#563a3f"/><rect width="1" height="1" x="10" y="4" fill="#563b3f"/><rect width="1" height="1" x="11" y="4" fill="#563a3f"/><rect width="1" height="1" x="12" y="4" fill="#563a3f"/><rect width="1" height="1" x="13" y="4" fill="#56383f"/><rect width="1" height="1" x="14" y="4" fill="#94785c"/><rect width="1" height="1" x="15" y="4" fill="#95785c"/><rect width="1" height="1" x="16" y="4" fill="#947a5c"/><rect width="1" height="1" x="17" y="4" fill="#79584c"/><rect width="1" height="1" x="5" y="5" fill="#79584f"/><rect width="1" height="1" x="6" y="5" fill="#94785c"/><rect width="1" height="1" x="7" y="5" fill="#563a3f"/><rect width="1" height="1" x="8" y="5" fill="#563a3f"/><rect width="1" height="1" x="9" y="5" fill="#201729"/><rect width="1" height="1" x="10" y="5" fill="#201729"/><rect width="1" height="1" x="11" y="5" fill="#231729"/><rect width="1" height="1" x="12" y="5" fill="#201729"/><rect width="1" height="1" x="13" y="5" fill="#201729"/><rect width="1" height="1" x="14" y="5" fill="#563a3f"/><rect width="1" height="1" x="15" y="5" fill="#56383f"/><rect width="1" height="1" x="16" y="5" fill="#94785c"/><rect width="1" height="1" x="17" y="5" fill="#94785f"/><rect width="1" height="1" x="18" y="5" fill="#79584f"/><rect width="1" height="1" x="5" y="6" fill="#79584f"/><rect width="1" height="1" x="6" y="6" fill="#94795c"/><rect width="1" height="1" x="7" y="6" fill="#96785c"/><rect width="1" height="1" x="8" y="6" fill="#201728"/><rect width="1" height="1" x="9" y="6" fill="#201729"/><rect width="1" height="1" x="10" y="6" fill="#201729"/><rect width="1" height="1" x="11" y="6" fill="#201729"/><rect width="1" height="1" x="12" y="6" fill="#201729"/><rect width="1" height="1" x="13" y="6" fill="#221529"/><rect width="1" height="1" x="14" y="6" fill="#201729"/><rect width="1" height="1" x="15" y="6" fill="#94785c"/><rect width="1" height="1" x="16" y="6" fill="#95795e"/><rect width="1" height="1" x="17" y="6" fill="#94785c"/><rect width="1" height="1" x="18" y="6" fill="#79584e"/><rect width="1" height="1" x="5" y="7" fill="#201729"/><rect width="1" height="1" x="6" y="7" fill="#79584f"/><rect width="1" height="1" x="7" y="7" fill="#94785c"/><rect width="1" height="1" x="8" y="7" fill="#94785c"/><rect width="1" height="1" x="9" y="7" fill="#94785c"/><rect width="1" height="1" x="10" y="7" fill="#94785c"/><rect width="1" height="1" x="11" y="7" fill="#95785c"/><rect width="1" height="1" x="12" y="7" fill="#94785c"/><rect width="1" height="1" x="13" y="7" fill="#94785c"/><rect width="1" height="1" x="14" y="7" fill="#94795c"/><rect width="1" height="1" x="15" y="7" fill="#96785c"/><rect width="1" height="1" x="16" y="7" fill="#79584f"/><rect width="1" height="1" x="17" y="7" fill="#563b3f"/><rect width="1" height="1" x="2" y="8" fill="#62eb3d"/><rect width="1" height="1" x="3" y="8" fill="#62eb3d"/><rect width="1" height="1" x="4" y="8" fill="#2eca35"/><rect width="1" height="1" x="5" y="8" fill="#201729"/><rect width="1" height="1" x="6" y="8" fill="#795a4f"/><rect width="1" height="1" x="7" y="8" fill="#7b584f"/><rect width="1" height="1" x="8" y="8" fill="#78584e"/><rect width="1" height="1" x="9" y="8" fill="#94795c"/><rect width="1" height="1" x="10" y="8" fill="#563a3f"/><rect width="1" height="1" x="11" y="8" fill="#79584f"/><rect width="1" height="1" x="12" y="8" fill="#79584f"/><rect width="1" height="1" x="13" y="8" fill="#78584f"/><rect width="1" height="1" x="14" y="8" fill="#79584f"/><rect width="1" height="1" x="15" y="8" fill="#78584f"/><rect width="1" height="1" x="16" y="8" fill="#79584f"/><rect width="1" height="1" x="17" y="8" fill="#563a3f"/><rect width="1" height="1" x="1" y="9" fill="#62eb3d"/><rect width="1" height="1" x="2" y="9" fill="#2ecb35"/><rect width="1" height="1" x="3" y="9" fill="#29963b"/><rect width="1" height="1" x="4" y="9" fill="#29973b"/><rect width="1" height="1" x="5" y="9" fill="#2c5b3f"/><rect width="1" height="1" x="6" y="9" fill="#79594f"/><rect width="1" height="1" x="7" y="9" fill="#563a3f"/><rect width="1" height="1" x="8" y="9" fill="#79584f"/><rect width="1" height="1" x="9" y="9" fill="#56383f"/><rect width="1" height="1" x="10" y="9" fill="#7b584f"/><rect width="1" height="1" x="11" y="9" fill="#573a3f"/><rect width="1" height="1" x="12" y="9" fill="#201729"/><rect width="1" height="1" x="13" y="9" fill="#201729"/><rect width="1" height="1" x="14" y="9" fill="#563a3f"/><rect width="1" height="1" x="15" y="9" fill="#79584f"/><rect width="1" height="1" x="16" y="9" fill="#563a3f"/><rect width="1" height="1" x="0" y="10" fill="#62e93d"/><rect width="1" height="1" x="1" y="10" fill="#29963b"/><rect width="1" height="1" x="2" y="10" fill="#29973b"/><rect width="1" height="1" x="3" y="10" fill="#2ecb34"/><rect width="1" height="1" x="4" y="10" fill="#2eca35"/><rect width="1" height="1" x="5" y="10" fill="#201729"/><rect width="1" height="1" x="6" y="10" fill="#2d5b3f"/><rect width="1" height="1" x="7" y="10" fill="#563a3f"/><rect width="1" height="1" x="8" y="10" fill="#94795c"/><rect width="1" height="1" x="9" y="10" fill="#563a3f"/><rect width="1" height="1" x="10" y="10" fill="#94785c"/><rect width="1" height="1" x="11" y="10" fill="#fff"/><rect width="1" height="1" x="12" y="10" fill="#201729"/><rect width="1" height="1" x="13" y="10" fill="#201729"/><rect width="1" height="1" x="14" y="10" fill="#fff"/><rect width="1" height="1" x="15" y="10" fill="#79584d"/><rect width="1" height="1" x="16" y="10" fill="#543a3f"/><rect width="1" height="1" x="18" y="10" fill="#7b584d"/><rect width="1" height="1" x="19" y="10" fill="#79584f"/><rect width="1" height="1" x="0" y="11" fill="#29973b"/><rect width="1" height="1" x="1" y="11" fill="#2ecb35"/><rect width="1" height="1" x="2" y="11" fill="#2eca35"/><rect width="1" height="1" x="5" y="11" fill="#201529"/><rect width="1" height="1" x="6" y="11" fill="#79584f"/><rect width="1" height="1" x="7" y="11" fill="#79584f"/><rect width="1" height="1" x="8" y="11" fill="#94785c"/><rect width="1" height="1" x="9" y="11" fill="#563a3d"/><rect width="1" height="1" x="10" y="11" fill="#96785c"/><rect width="1" height="1" x="11" y="11" fill="#201729"/><rect width="1" height="1" x="12" y="11" fill="#22172b"/><rect width="1" height="1" x="13" y="11" fill="#20172b"/><rect width="1" height="1" x="14" y="11" fill="#201629"/><rect width="1" height="1" x="15" y="11" fill="#79584f"/><rect width="1" height="1" x="16" y="11" fill="#563a3f"/><rect width="1" height="1" x="17" y="11" fill="#20172b"/><rect width="1" height="1" x="18" y="11" fill="#94785c"/><rect width="1" height="1" x="19" y="11" fill="#94785c"/><rect width="1" height="1" x="20" y="11" fill="#79584f"/><rect width="1" height="1" x="5" y="12" fill="#201728"/><rect width="1" height="1" x="6" y="12" fill="#79584f"/><rect width="1" height="1" x="7" y="12" fill="#79594e"/><rect width="1" height="1" x="8" y="12" fill="#563a3d"/><rect width="1" height="1" x="9" y="12" fill="#79584f"/><rect width="1" height="1" x="10" y="12" fill="#7b584f"/><rect width="1" height="1" x="11" y="12" fill="#94785c"/><rect width="1" height="1" x="12" y="12" fill="#201529"/><rect width="1" height="1" x="13" y="12" fill="#201729"/><rect width="1" height="1" x="14" y="12" fill="#563a3f"/><rect width="1" height="1" x="15" y="12" fill="#79584f"/><rect width="1" height="1" x="16" y="12" fill="#201729"/><rect width="1" height="1" x="17" y="12" fill="#563a3f"/><rect width="1" height="1" x="18" y="12" fill="#573a3f"/><rect width="1" height="1" x="19" y="12" fill="#94785c"/><rect width="1" height="1" x="20" y="12" fill="#79584e"/><rect width="1" height="1" x="5" y="13" fill="#221729"/><rect width="1" height="1" x="6" y="13" fill="#79584f"/><rect width="1" height="1" x="7" y="13" fill="#79584f"/><rect width="1" height="1" x="8" y="13" fill="#563a3f"/><rect width="1" height="1" x="9" y="13" fill="#7b584f"/><rect width="1" height="1" x="10" y="13" fill="#79584f"/><rect width="1" height="1" x="11" y="13" fill="#94785c"/><rect width="1" height="1" x="12" y="13" fill="#795a4f"/><rect width="1" height="1" x="13" y="13" fill="#79584f"/><rect width="1" height="1" x="14" y="13" fill="#573a3f"/><rect width="1" height="1" x="15" y="13" fill="#79584f"/><rect width="1" height="1" x="16" y="13" fill="#201729"/><rect width="1" height="1" x="17" y="13" fill="#563a3f"/><rect width="1" height="1" x="18" y="13" fill="#563a3f"/><rect width="1" height="1" x="19" y="13" fill="#201729"/><rect width="1" height="1" x="5" y="14" fill="#201729"/><rect width="1" height="1" x="6" y="14" fill="#56383f"/><rect width="1" height="1" x="7" y="14" fill="#79584f"/><rect width="1" height="1" x="8" y="14" fill="#563a3f"/><rect width="1" height="1" x="9" y="14" fill="#79584f"/><rect width="1" height="1" x="10" y="14" fill="#79584f"/><rect width="1" height="1" x="11" y="14" fill="#79584f"/><rect width="1" height="1" x="12" y="14" fill="#563a3f"/><rect width="1" height="1" x="13" y="14" fill="#563a3e"/><rect width="1" height="1" x="14" y="14" fill="#79584f"/><rect width="1" height="1" x="15" y="14" fill="#79584f"/><rect width="1" height="1" x="16" y="14" fill="#563a3f"/><rect width="1" height="1" x="17" y="14" fill="#201729"/><rect width="1" height="1" x="18" y="14" fill="#201729"/><rect width="1" height="1" x="6" y="15" fill="#201729"/><rect width="1" height="1" x="7" y="15" fill="#79584f"/><rect width="1" height="1" x="8" y="15" fill="#563a3f"/><rect width="1" height="1" x="9" y="15" fill="#79584f"/><rect width="1" height="1" x="10" y="15" fill="#79584f"/><rect width="1" height="1" x="11" y="15" fill="#79584f"/><rect width="1" height="1" x="12" y="15" fill="#79584f"/><rect width="1" height="1" x="13" y="15" fill="#563a3f"/><rect width="1" height="1" x="14" y="15" fill="#79584f"/><rect width="1" height="1" x="15" y="15" fill="#78584d"/><rect width="1" height="1" x="16" y="15" fill="#79584f"/><rect width="1" height="1" x="17" y="15" fill="#201428"/><rect width="1" height="1" x="6" y="16" fill="#201729"/><rect width="1" height="1" x="7" y="16" fill="#7b584f"/><rect width="1" height="1" x="8" y="16" fill="#79584d"/><rect width="1" height="1" x="9" y="16" fill="#563a3f"/><rect width="1" height="1" x="10" y="16" fill="#79584f"/><rect width="1" height="1" x="11" y="16" fill="#79584f"/><rect width="1" height="1" x="12" y="16" fill="#79584f"/><rect width="1" height="1" x="13" y="16" fill="#79584f"/><rect width="1" height="1" x="14" y="16" fill="#795a4f"/><rect width="1" height="1" x="15" y="16" fill="#79584f"/><rect width="1" height="1" x="16" y="16" fill="#79584f"/><rect width="1" height="1" x="17" y="16" fill="#201729"/><rect width="1" height="1" x="6" y="17" fill="#221729"/><rect width="1" height="1" x="7" y="17" fill="#563a3f"/><rect width="1" height="1" x="8" y="17" fill="#79584d"/><rect width="1" height="1" x="9" y="17" fill="#563b3e"/><rect width="1" height="1" x="10" y="17" fill="#79584f"/><rect width="1" height="1" x="11" y="17" fill="#79584f"/><rect width="1" height="1" x="12" y="17" fill="#79584f"/><rect width="1" height="1" x="13" y="17" fill="#563a3f"/><rect width="1" height="1" x="14" y="17" fill="#79584f"/><rect width="1" height="1" x="15" y="17" fill="#795a4f"/><rect width="1" height="1" x="16" y="17" fill="#563a3f"/><rect width="1" height="1" x="17" y="17" fill="#201729"/><rect width="1" height="1" x="7" y="18" fill="#201729"/><rect width="1" height="1" x="8" y="18" fill="#221729"/><rect width="1" height="1" x="9" y="18" fill="#543a3f"/><rect width="1" height="1" x="10" y="18" fill="#79584f"/><rect width="1" height="1" x="11" y="18" fill="#543a3f"/><rect width="1" height="1" x="12" y="18" fill="#79584f"/><rect width="1" height="1" x="13" y="18" fill="#563a3f"/><rect width="1" height="1" x="14" y="18" fill="#573a3f"/><rect width="1" height="1" x="15" y="18" fill="#201729"/><rect width="1" height="1" x="16" y="18" fill="#221729"/><rect width="1" height="1" x="7" y="19" fill="#201729"/><rect width="1" height="1" x="8" y="19" fill="#29973b"/><rect width="1" height="1" x="9" y="19" fill="#201729"/><rect width="1" height="1" x="10" y="19" fill="#211729"/><rect width="1" height="1" x="11" y="19" fill="#211729"/><rect width="1" height="1" x="12" y="19" fill="#201729"/><rect width="1" height="1" x="13" y="19" fill="#201729"/><rect width="1" height="1" x="14" y="19" fill="#22172b"/><rect width="1" height="1" x="15" y="19" fill="#29973a"/><rect width="1" height="1" x="16" y="19" fill="#211729"/><rect width="1" height="1" x="7" y="20" fill="#201729"/><rect width="1" height="1" x="8" y="20" fill="#2d5b3d"/><rect width="1" height="1" x="9" y="20" fill="#2d5b3f"/><rect width="1" height="1" x="10" y="20" fill="#201729"/><rect width="1" height="1" x="13" y="20" fill="#201729"/><rect width="1" height="1" x="14" y="20" fill="#2d5b3f"/><rect width="1" height="1" x="15" y="20" fill="#2d5b3f"/><rect width="1" height="1" x="16" y="20" fill="#201529"/><rect width="1" height="1" x="7" y="21" fill="#201729"/><rect width="1" height="1" x="8" y="21" fill="#2d5b3f"/><rect width="1" height="1" x="9" y="21" fill="#2d5b3f"/><rect width="1" height="1" x="10" y="21" fill="#201729"/><rect width="1" height="1" x="13" y="21" fill="#201729"/><rect width="1" height="1" x="14" y="21" fill="#2d5b3f"/><rect width="1" height="1" x="15" y="21" fill="#2d5b3f"/><rect width="1" height="1" x="16" y="21" fill="#201729"/><rect width="1" height="1" x="8" y="22" fill="#221729"/><rect width="1" height="1" x="9" y="22" fill="#201629"/><rect width="1" height="1" x="14" y="22" fill="#201729"/><rect width="1" height="1" x="15" y="22" fill="#231729"/></svg>