<svg xmlns="http://www.w3.org/2000/svg" width="1000" height="1000" shape-rendering="crispEdges" viewBox="-1.5 -0.5 26.5 26.5"><g transform="translate(11.5, 12.5) scale(0.62) translate(-11.5, -12.5)"><path fill="#000" d="M7,23h1v1h2v1h7v-1h2v-1h1v-1h-1v-1h-2v1h-4v-2h-2v2h-4Z" opacity=".25"/><rect width="1" height="1" x="9" y="2" fill="#000"/><rect width="1" height="1" x="10" y="2" fill="#000"/><rect width="1" height="1" x="11" y="2" fill="#000"/><rect width="1" height="1" x="12" y="2" fill="#000"/><rect width="1" height="1" x="13" y="2" fill="#000"/><rect width="1" height="1" x="7" y="3" fill="#000"/><rect width="1" height="1" x="8" y="3" fill="#000"/><rect width="1" height="1" x="14" y="3" fill="#000"/><rect width="1" height="1" x="15" y="3" fill="#000"/><rect width="1" height="1" x="16" y="3" fill="#000"/><rect width="1" height="1" x="6" y="4" fill="#000"/><rect width="1" height="1" x="9" y="4" fill="#000"/><rect width="1" height="1" x="10" y="4" fill="#000"/><rect width="1" height="1" x="11" y="4" fill="#000"/><rect width="1" height="1" x="12" y="4" fill="#000"/><rect width="1" height="1" x="13" y="4" fill="#000"/><rect width="1" height="1" x="17" y="4" fill="#000"/><rect width="1" height="1" x="5" y="5" fill="#000"/><rect width="1" height="1" x="7" y="5" fill="#000"/><rect width="1" height="1" x="8" y="5" fill="#000"/><rect width="1" height="1" x="9" y="5" fill="#000"/><rect width="1" height="1" x="10" y="5" fill="#000"/><rect width="1" height="1" x="11" y="5" fill="#000"/><rect width="1" height="1" x="12" y="5" fill="#000"/><rect width="1" height="1" x="13" y="5" fill="#000"/><rect width="1" height="1" x="14" y="5" fill="#000"/><rect width="1" height="1" x="15" y="5" fill="#000"/><rect width="1" height="1" x="18" y="5" fill="#000"/><rect width="1" height="1" x="5" y="6" fill="#000"/><rect width="1" height="1" x="8" y="6" fill="#000"/><rect width="1" height="1" x="9" y="6" fill="#000"/><rect width="1" height="1" x="10" y="6" fill="#000"/><rect width="1" height="1" x="11" y="6" fill="#000"/><rect width="1" height="1" x="12" y="6" fill="#000"/><rect width="1" height="1" x="13" y="6" fill="#000"/><rect width="1" height="1" x="14" y="6" fill="#000"/><rect width="1" height="1" x="18" y="6" fill="#000"/><rect width="1" height="1" x="5" y="7" fill="#000"/><rect width="1" height="1" x="6" y="7" fill="#000"/><rect width="1" height="1" x="16" y="7" fill="#000"/><rect width="1" height="1" x="17" y="7" fill="#000"/><rect width="1" height="1" x="2" y="8" fill="#000"/><rect width="1" height="1" x="3" y="8" fill="#000"/><rect width="1" height="1" x="4" y="8" fill="#000"/><rect width="1" height="1" x="5" y="8" fill="#000"/><rect width="1" height="1" x="6" y="8" fill="#000"/><rect width="1" height="1" x="7" y="8" fill="#000"/><rect width="1" height="1" x="8" y="8" fill="#000"/><rect width="1" height="1" x="10" y="8" fill="#000" opacity=".9"/><rect width="1" height="1" x="11" y="8" fill="#000"/><rect width="1" height="1" x="12" y="8" fill="#000"/><rect width="1" height="1" x="13" y="8" fill="#000"/><rect width="1" height="1" x="14" y="8" fill="#000"/><rect width="1" height="1" x="15" y="8" fill="#000"/><rect width="1" height="1" x="16" y="8" fill="#000"/><rect width="1" height="1" x="17" y="8" fill="#000"/><rect width="1" height="1" x="1" y="9" fill="#000"/><rect width="1" height="1" x="2" y="9" fill="#000"/><rect width="1" height="1" x="3" y="9" fill="#000"/><rect width="1" height="1" x="4" y="9" fill="#000"/><rect width="1" height="1" x="5" y="9" fill="#000"/><rect width="1" height="1" x="7" y="9" fill="#000" opacity=".9"/><rect width="1" height="1" x="8" y="9" fill="#000"/><rect width="1" height="1" x="9" y="9" fill="#000" opacity=".9"/><rect width="1" height="1" x="10" y="9" fill="#000"/><rect width="1" height="1" x="11" y="9" fill="#000" opacity=".9"/><rect width="1" height="1" x="12" y="9" fill="#000" opacity=".8"/><rect width="1" height="1" x="13" y="9" fill="#000" opacity=".8"/><rect width="1" height="1" x="14" y="9" fill="#000" opacity=".9"/><rect width="1" height="1" x="15" y="9" fill="#000"/><rect width="1" height="1" x="16" y="9" fill="#000" opacity=".9"/><rect width="1" height="1" x="0" y="10" fill="#000"/><rect width="1" height="1" x="1" y="10" fill="#000"/><rect width="1" height="1" x="2" y="10" fill="#000"/><rect width="1" height="1" x="3" y="10" fill="#000"/><rect width="1" height="1" x="5" y="10" fill="#000"/><rect width="1" height="1" x="7" y="10" fill="#000" opacity=".9"/><rect width="1" height="1" x="8" y="10" fill="#000"/><rect width="1" height="1" x="9" y="10" fill="#000" opacity=".9"/><rect width="1" height="1" x="10" y="10" fill="#000"/><rect width="1" height="1" x="12" y="10" fill="#000" opacity=".8"/><rect width="1" height="1" x="13" y="10" fill="#000" opacity=".8"/><rect width="1" height="1" x="15" y="10" fill="#000"/><rect width="1" height="1" x="16" y="10" fill="#000" opacity=".9"/><rect width="1" height="1" x="18" y="10" fill="#000"/><rect width="1" height="1" x="19" y="10" fill="#000"/><rect width="1" height="1" x="0" y="11" fill="#000"/><rect width="1" height="1" x="1" y="11" fill="#000"/><rect width="1" height="1" x="5" y="11" fill="#000"/><rect width="1" height="1" x="7" y="11" fill="#000"/><rect width="1" height="1" x="8" y="11" fill="#000"/><rect width="1" height="1" x="9" y="11" fill="#000" opacity=".9"/><rect width="1" height="1" x="10" y="11" fill="#000"/><rect width="1" height="1" x="11" y="11" fill="#000" opacity=".8"/><rect width="1" height="1" x="12" y="11" fill="#000" opacity=".8"/><rect width="1" height="1" x="13" y="11" fill="#000" opacity=".8"/><rect width="1" height="1" x="14" y="11" fill="#000" opacity=".8"/><rect width="1" height="1" x="15" y="11" fill="#000"/><rect width="1" height="1" x="16" y="11" fill="#000" opacity=".9"/><rect width="1" height="1" x="17" y="11" fill="#000"/><rect width="1" height="1" x="20" y="11" fill="#000"/><rect width="1" height="1" x="5" y="12" fill="#000"/><rect width="1" height="1" x="7" y="12" fill="#000"/><rect width="1" height="1" x="8" y="12" fill="#000" opacity=".9"/><rect width="1" height="1" x="9" y="12" fill="#000"/><rect width="1" height="1" x="10" y="12" fill="#000"/><rect width="1" height="1" x="11" y="12" fill="#000"/><rect width="1" height="1" x="12" y="12" fill="#000" opacity=".8"/><rect width="1" height="1" x="13" y="12" fill="#000" opacity=".8"/><rect width="1" height="1" x="14" y="12" fill="#000" opacity=".9"/><rect width="1" height="1" x="15" y="12" fill="#000"/><rect width="1" height="1" x="16" y="12" fill="#000"/><rect width="1" height="1" x="17" y="12" fill="#000" opacity=".9"/><rect width="1" height="1" x="18" y="12" fill="#000" opacity=".9"/><rect width="1" height="1" x="20" y="12" fill="#000"/><rect width="1" height="1" x="5" y="13" fill="#000"/><rect width="1" height="1" x="7" y="13" fill="#000"/><rect width="1" height="1" x="8" y="13" fill="#000" opacity=".9"/><rect width="1" height="1" x="9" y="13" fill="#000"/><rect width="1" height="1" x="10" y="13" fill="#000"/><rect width="1" height="1" x="11" y="13" fill="#000"/><rect width="1" height="1" x="12" y="13" fill="#000"/><rect width="1" height="1" x="13" y="13" fill="#000"/><rect width="1" height="1" x="14" y="13" fill="#000" opacity=".9"/><rect width="1" height="1" x="15" y="13" fill="#000"/><rect width="1" height="1" x="16" y="13" fill="#000"/><rect width="1" height="1" x="17" y="13" fill="#000" opacity=".9"/><rect width="1" height="1" x="18" y="13" fill="#000" opacity=".9"/><rect width="1" height="1" x="19" y="13" fill="#000"/><rect width="1" height="1" x="5" y="14" fill="#000"/><rect width="1" height="1" x="6" y="14" fill="#000" opacity=".9"/><rect width="1" height="1" x="8" y="14" fill="#000" opacity=".9"/><rect width="1" height="1" x="9" y="14" fill="#000"/><rect width="1" height="1" x="10" y="14" fill="#000"/><rect width="1" height="1" x="11" y="14" fill="#000"/><rect width="1" height="1" x="12" y="14" fill="#000" opacity=".9"/><rect width="1" height="1" x="13" y="14" fill="#000" opacity=".9"/><rect width="1" height="1" x="14" y="14" fill="#000"/><rect width="1" height="1" x="15" y="14" fill="#000"/><rect width="1" height="1" x="16" y="14" fill="#000" opacity=".9"/><rect width="1" height="1" x="17" y="14" fill="#000"/><rect width="1" height="1" x="18" y="14" fill="#000"/><rect width="1" height="1" x="6" y="15" fill="#000"/><rect width="1" height="1" x="8" y="15" fill="#000" opacity=".9"/><rect width="1" height="1" x="9" y="15" fill="#000"/><rect width="1" height="1" x="10" y="15" fill="#000"/><rect width="1" height="1" x="11" y="15" fill="#000"/><rect width="1" height="1" x="12" y="15" fill="#000"/><rect width="1" height="1" x="13" y="15" fill="#000" opacity=".9"/><rect width="1" height="1" x="14" y="15" fill="#000"/><rect width="1" height="1" x="15" y="15" fill="#000"/><rect width="1" height="1" x="16" y="15" fill="#000"/><rect width="1" height="1" x="17" y="15" fill="#000"/><rect width="1" height="1" x="6" y="16" fill="#000"/><rect width="1" height="1" x="8" y="16" fill="#000"/><rect width="1" height="1" x="9" y="16" fill="#000" opacity=".9"/><rect width="1" height="1" x="10" y="16" fill="#000"/><rect width="1" height="1" x="11" y="16" fill="#000"/><rect width="1" height="1" x="12" y="16" fill="#000"/><rect width="1" height="1" x="13" y="16" fill="#000"/><rect width="1" height="1" x="14" y="16" fill="#000"/><rect width="1" height="1" x="15" y="16" fill="#000"/><rect width="1" height="1" x="16" y="16" fill="#000"/><rect width="1" height="1" x="17" y="16" fill="#000"/><rect width="1" height="1" x="6" y="17" fill="#000"/><rect width="1" height="1" x="7" y="17" fill="#000" opacity=".9"/><rect width="1" height="1" x="8" y="17" fill="#000"/><rect width="1" height="1" x="9" y="17" fill="#000" opacity=".9"/><rect width="1" height="1" x="10" y="17" fill="#000"/><rect width="1" height="1" x="11" y="17" fill="#000"/><rect width="1" height="1" x="12" y="17" fill="#000"/><rect width="1" height="1" x="13" y="17" fill="#000" opacity=".9"/><rect width="1" height="1" x="14" y="17" fill="#000"/><rect width="1" height="1" x="15" y="17" fill="#000"/><rect width="1" height="1" x="16" y="17" fill="#000" opacity=".9"/><rect width="1" height="1" x="17" y="17" fill="#000"/><rect width="1" height="1" x="7" y="18" fill="#000"/><rect width="1" height="1" x="8" y="18" fill="#000"/><rect width="1" height="1" x="9" y="18" fill="#000" opacity=".9"/><rect width="1" height="1" x="10" y="18" fill="#000"/><rect width="1" height="1" x="11" y="18" fill="#000" opacity=".9"/><rect width="1" height="1" x="12" y="18" fill="#000"/><rect width="1" height="1" x="13" y="18" fill="#000" opacity=".9"/><rect width="1" height="1" x="14" y="18" fill="#000" opacity=".9"/><rect width="1" height="1" x="15" y="18" fill="#000"/><rect width="1" height="1" x="16" y="18" fill="#000"/><rect width="1" height="1" x="7" y="19" fill="#000"/><rect width="1" height="1" x="9" y="19" fill="#000"/><rect width="1" height="1" x="10" y="19" fill="#000"/><rect width="1" height="1" x="11" y="19" fill="#000"/><rect width="1" height="1" x="12" y="19" fill="#000"/><rect width="1" height="1" x="13" y="19" fill="#000"/><rect width="1" height="1" x="14" y="19" fill="#000"/><rect width="1" height="1" x="16" y="19" fill="#000"/><rect width="1" height="1" x="7" y="20" fill="#000"/><rect width="1" height="1" x="8" y="20" fill="#000" opacity=".1"/><rect width="1" height="1" x="9" y="20" fill="#000" opacity=".1"/><rect width="1" height="1" x="10" y="20" fill="#000"/><rect width="1" height="1" x="13" y="20" fill="#000"/><rect width="1" height="1" x="14" y="20" fill="#000" opacity=".1"/><rect width="1" height="1" x="15" y="20" fill="#000" opacity=".1"/><rect width="1" height="1" x="16" y="20" fill="#000"/><rect width="1" height="1" x="7" y="21" fill="#000"/><rect width="1" height="1" x="8" y="21" fill="#000" opacity=".1"/><rect width="1" height="1" x="9" y="21" fill="#000" opacity=".1"/><rect width="1" height="1" x="10" y="21" fill="#000"/><rect width="1" height="1" x="13" y="21" fill="#000"/><rect width="1" height="1" x="14" y="21" fill="#000" opacity=".1"/><rect width="1" height="1" x="15" y="21" fill="#000" opacity=".1"/><rect width="1" height="1" x="16" y="21" fill="#000"/><rect width="1" height="1" x="8" y="22" fill="#000"/><rect width="1" height="1" x="9" y="22" fill="#000"/><rect width="1" height="1" x="14" y="22" fill="#000"/><rect width="1" height="1" x="15" y="22" fill="#000"/></g></svg>